<svg xmlns="http://www.w3.org/2000/svg" width="1200" height="1200" viewBox="0 0 1200 1200" version="1.1">
	<path d="M 885 72.083 C 749.603 73.287, 430.468 74.976, 321.812 75.064 C 241.154 75.130, 220.911 75.402, 220.058 76.430 C 218.960 77.754, 219.569 83.105, 221.176 86.250 C 221.848 87.565, 221.667 88, 220.448 88 C 218.996 88, 218.857 90.049, 219.130 107.449 C 219.298 118.146, 219.172 127.161, 218.850 127.483 C 218.529 127.805, 216.068 127.568, 213.383 126.956 C 195.745 122.941, 148.062 119.472, 146.446 122.087 C 145.167 124.157, 147.572 124.757, 163.500 126.342 C 172.300 127.217, 183.325 128.621, 188 129.462 C 192.675 130.302, 201.410 131.650, 207.412 132.457 C 213.414 133.264, 218.814 134.448, 219.412 135.088 C 220.230 135.962, 219.755 136.102, 217.500 135.654 C 208.561 133.875, 187.673 132.882, 171 133.441 C 148.733 134.189, 144 134.745, 144 136.614 C 144 137.376, 143.550 138, 143 138 C 142.450 138, 142 138.450, 142 139 C 142 139.628, 145.419 139.824, 151.201 139.527 C 158.456 139.154, 160.752 139.370, 162.054 140.548 C 164.004 142.314, 171.166 143.984, 196 148.464 C 210.423 151.066, 218.442 151.958, 219.341 151.059 C 219.813 150.587, 219.921 149.328, 219.583 148.260 C 219.062 146.619, 217.388 146.134, 208.733 145.121 C 203.105 144.462, 196.925 143.480, 195 142.939 C 193.075 142.397, 186.775 141.301, 181 140.502 L 170.500 139.051 187.500 139.564 C 205.628 140.112, 221 141.758, 221 143.152 C 221 143.618, 220.546 144, 219.992 144 C 219 144, 219.206 144.637, 221.852 149.750 C 222.782 151.546, 222.745 152, 221.670 152 C 220.727 152, 220.350 153.350, 220.412 156.496 C 220.460 158.969, 220.873 160.994, 221.329 160.996 C 221.786 160.998, 221.862 162.350, 221.500 164 C 220.985 166.345, 221.186 167, 222.421 167 C 223.289 167, 224 167.408, 224 167.906 C 224 168.405, 223.100 168.577, 222 168.290 C 220.224 167.825, 220.002 168.256, 220.014 172.133 C 220.036 179.230, 220.843 181, 224.058 181 C 225.611 181, 227.163 181.455, 227.506 182.010 C 228.156 183.061, 224.871 182.941, 201 181.040 C 174.569 178.936, 156.434 180.114, 152.344 184.199 L 150.040 186.500 164.270 186.158 C 177.541 185.838, 209.518 187.343, 216.656 188.622 C 219.292 189.094, 219.918 189.750, 220.452 192.594 C 221.058 195.824, 221.308 196.001, 225.295 196.015 C 227.608 196.024, 230.175 196.516, 231 197.110 C 232.203 197.975, 232.103 198.045, 230.500 197.466 C 229.400 197.068, 213.352 196.622, 194.838 196.475 C 164.563 196.234, 160.489 196.395, 154.338 198.075 C 150.577 199.102, 147.162 199.955, 146.750 199.971 C 146.338 199.987, 146 200.718, 146 201.595 C 146 203.017, 147.633 203.112, 161 202.467 C 171.330 201.969, 176 202.073, 176 202.801 C 176 204.846, 217.634 211.473, 219.750 209.764 C 220.699 208.998, 221 209.508, 221 211.878 C 221 213.701, 221.520 215.006, 222.250 215.015 C 223.088 215.026, 223.010 215.341, 222.014 215.970 C 220.800 216.738, 220.736 217.463, 221.665 219.924 C 222.412 221.903, 222.502 224.238, 221.925 226.719 C 220.091 234.621, 221.355 246.134, 223.886 244.571 C 224.318 244.304, 225.983 244.455, 227.586 244.907 C 229.235 245.372, 215.961 245.679, 197 245.614 C 162.159 245.495, 152 246.389, 152 249.571 C 152 250.771, 156.133 251.013, 177.750 251.080 C 202.179 251.155, 219.326 251.933, 220.294 253.010 C 220.536 253.280, 220.966 255.660, 221.250 258.300 L 221.766 263.099 199.133 262.417 C 186.685 262.041, 175.778 261.363, 174.896 260.910 C 172.039 259.442, 160 258.595, 160 259.862 C 160 260.488, 160.702 261, 161.559 261 C 164.447 261, 162.055 262.767, 158.261 263.437 C 152.516 264.450, 148 266.053, 148 267.078 C 148 267.614, 157.937 268.013, 171.750 268.031 C 185.679 268.049, 200.392 268.644, 207.330 269.469 C 213.836 270.243, 219.736 270.655, 220.441 270.384 C 222.297 269.672, 222.861 275.617, 222.366 290.669 C 222.135 297.726, 221.882 303.958, 221.806 304.518 C 221.729 305.078, 221.992 306.830, 222.389 308.412 L 223.110 311.288 210.226 310.588 C 196.265 309.829, 162.928 311.445, 153.452 313.340 C 150.263 313.978, 147.463 315.080, 147.231 315.790 C 146.889 316.829, 152.696 317.005, 177.153 316.698 C 193.844 316.489, 210.706 316.505, 214.625 316.736 L 221.749 317.154 222.378 321.741 C 223.010 326.349, 222.490 328.377, 221.196 326.356 C 220.813 325.759, 215.100 324.737, 208.500 324.086 C 201.900 323.434, 190.875 322.262, 184 321.481 C 165.143 319.339, 152 319.102, 152 320.903 C 152 321.400, 154.137 322.036, 156.750 322.315 C 159.363 322.595, 166.675 323.638, 173 324.633 L 184.500 326.444 171.500 327.657 C 155.334 329.166, 144 331.014, 144 332.141 C 144 333.322, 143.882 333.318, 185.500 333.414 L 222.500 333.500 222.802 336.601 C 223.048 339.117, 223.519 339.662, 225.302 339.489 C 226.536 339.369, 226.733 339.465, 225.750 339.707 C 224.787 339.945, 223.970 340.895, 223.934 341.820 C 223.898 342.744, 223.717 350.475, 223.533 359 L 223.199 374.500 193.916 375.180 C 167.480 375.795, 150.689 377.031, 146.393 378.680 C 141.830 380.430, 150.727 380.972, 184.500 381 C 204.850 381.017, 222.021 381.362, 222.659 381.768 C 223.329 382.194, 223.587 383.711, 223.270 385.366 C 222.752 388.080, 222.514 388.198, 218.612 387.666 C 216.350 387.357, 203.475 386.095, 190 384.860 C 171.567 383.171, 164.138 382.853, 160 383.577 L 154.500 384.538 164.500 386.339 C 170 387.330, 179.225 388.575, 185 389.105 C 205.536 390.992, 205.177 391.628, 183.500 391.766 C 154.574 391.950, 143.763 393.094, 146.361 395.696 C 146.803 396.138, 163.802 396.799, 184.137 397.164 C 204.471 397.529, 221.760 398.077, 222.555 398.383 C 223.350 398.688, 224 399.913, 224 401.107 C 224 403.201, 223.734 403.254, 216.250 402.629 C 211.988 402.273, 202.425 401.513, 195 400.940 C 187.575 400.367, 177.900 399.520, 173.500 399.058 C 169.100 398.596, 163.515 398.506, 161.088 398.859 L 156.676 399.500 161.588 401.191 C 164.290 402.121, 170.550 403.341, 175.500 403.902 C 191.209 405.683, 204.221 406.952, 213.599 407.618 C 222.310 408.237, 222.721 408.173, 223.255 406.132 C 223.562 404.959, 224.395 404, 225.106 404 C 226.113 404, 226.133 404.267, 225.200 405.200 C 224.362 406.038, 224 411.467, 224 423.200 L 224 440 197.750 440.039 C 164.362 440.089, 149.040 441.170, 148.662 443.500 C 148.573 444.050, 151.650 445.009, 155.500 445.631 C 159.350 446.254, 161.938 446.816, 161.250 446.881 C 158.562 447.136, 160.197 448.772, 163.750 449.382 C 169.502 450.370, 196.945 451.926, 211.750 452.103 C 219.038 452.190, 225 452.653, 225 453.131 C 225 453.609, 217.688 454.004, 208.750 454.008 C 192.245 454.017, 152.724 456.401, 149.672 457.572 C 145.230 459.277, 150.295 461, 159.747 461 C 164.263 461, 165.044 461.242, 164.119 462.357 C 162.598 464.190, 169.066 464.862, 199 465.985 C 218.962 466.734, 222.667 466.651, 223.610 465.434 C 224.221 464.645, 224.943 464, 225.215 464 C 225.724 464, 225.505 493.102, 224.990 494 C 224.832 494.275, 224.657 496.300, 224.601 498.500 L 224.500 502.500 197.500 502.724 C 171.908 502.936, 152.296 504.081, 150.006 505.496 C 147.539 507.021, 150.674 508, 158.025 508 C 162.640 508, 167.299 508.590, 169.216 509.418 C 172.255 510.730, 199.067 512.850, 217.349 513.224 C 223.288 513.345, 224.302 513.638, 224.974 515.432 C 225.430 516.650, 225.314 517.776, 224.690 518.173 C 224.108 518.543, 209.653 518.882, 192.566 518.926 C 175.480 518.970, 158.575 519.355, 155 519.781 L 148.500 520.557 151.700 522.278 C 154.374 523.717, 157.734 524, 172.118 524 C 181.588 524, 192.073 524.455, 195.418 525.010 C 198.763 525.566, 206.225 526.402, 212 526.869 C 220.984 527.595, 222.681 527.493, 223.754 526.162 C 224.727 524.956, 225.275 524.875, 226.204 525.804 C 227.132 526.732, 227.118 527, 226.141 527 C 225.449 527, 225.099 527.352, 225.365 527.782 C 225.892 528.634, 226.211 555.063, 225.771 561.439 L 225.500 565.377 189.300 565.439 C 162.335 565.484, 152.791 565.809, 151.887 566.713 C 150.937 567.663, 151.196 568.119, 153.087 568.822 C 156.531 570.100, 172.631 571.013, 193.500 571.113 C 214.193 571.213, 225.557 572.064, 225.370 573.500 C 225.298 574.050, 225.625 575.513, 226.095 576.750 L 226.950 579 205.225 579.186 C 193.276 579.289, 181.700 579.448, 179.500 579.541 C 177.300 579.633, 171.225 579.825, 166 579.967 C 159.868 580.133, 155.439 580.770, 153.507 581.764 C 150.742 583.185, 150.666 583.363, 152.507 584.081 C 153.603 584.509, 170.250 584.898, 189.500 584.945 C 208.750 584.992, 224.950 585.361, 225.500 585.765 C 226.050 586.169, 226.500 587.175, 226.500 588 C 226.500 589.136, 228.199 589.639, 233.500 590.073 L 240.500 590.647 235 590.942 C 231.975 591.104, 228.892 591.153, 228.148 591.051 C 227.061 590.902, 226.852 593.371, 227.079 603.683 C 227.235 610.732, 226.989 618.233, 226.534 620.350 C 225.914 623.232, 226.050 624.413, 227.074 625.046 C 227.826 625.511, 228.128 626.205, 227.745 626.588 C 227.362 626.971, 226.307 626.669, 225.400 625.917 C 223.792 624.583, 201.957 623.296, 177.250 623.081 C 168.640 623.006, 168 623.138, 168 625 C 168 626.760, 167.310 627.008, 162.250 627.070 C 159.088 627.109, 155.610 627.488, 154.522 627.913 C 152.598 628.665, 152.604 628.718, 154.755 629.869 C 156.757 630.940, 186.566 632.584, 216.476 633.271 L 226.453 633.500 226.715 636.757 L 226.977 640.015 199.632 639.350 C 175.111 638.755, 172.042 638.857, 169.921 640.343 C 168.211 641.541, 165.400 642, 159.777 642 C 153.752 642, 152 642.318, 152 643.410 C 152 645.605, 162.540 646.829, 191.500 647.994 C 221.309 649.193, 228.012 649.799, 227.713 651.272 C 227.596 651.850, 228.625 652.655, 230 653.062 C 231.402 653.476, 231.778 653.844, 230.857 653.900 C 228.345 654.053, 227.894 656.436, 228.007 668.959 C 228.064 675.306, 228.086 681.231, 228.055 682.125 C 228.007 683.537, 226.593 683.717, 217.250 683.494 C 198.479 683.047, 167.904 684.780, 166.096 686.393 C 165.218 687.177, 163.375 688.017, 162 688.260 C 160.625 688.504, 174.350 688.513, 192.500 688.280 C 210.650 688.048, 226.007 687.700, 226.626 687.508 C 228 687.081, 227.894 690.211, 226.500 691.233 C 225.950 691.636, 209.725 691.677, 190.444 691.324 C 165.921 690.876, 154.804 691.010, 153.444 691.771 C 151.606 692.800, 151.646 692.915, 154.194 693.884 C 158.482 695.514, 178.926 696.971, 199 697.077 C 228.996 697.236, 230.765 698.492, 202 699.207 C 183.672 699.662, 173.828 700.355, 167 701.670 L 157.500 703.500 166.500 704 C 171.450 704.275, 187.356 704.275, 201.847 704 C 216.338 703.725, 228.363 703.775, 228.570 704.111 C 228.777 704.446, 228.658 705.009, 228.306 705.361 C 227.954 705.712, 211.204 706.007, 191.083 706.015 C 155.096 706.030, 148.177 706.596, 154.512 709.005 C 158.016 710.337, 188.024 711.921, 210.628 711.967 C 222.303 711.991, 227.028 712.345, 227.743 713.250 C 228.286 713.938, 228.820 721.016, 228.929 728.980 C 229.038 736.944, 229.506 743.695, 229.969 743.981 C 230.433 744.268, 219.240 744.341, 205.095 744.145 C 180.111 743.797, 165.803 744.797, 163.553 747.047 C 162.520 748.080, 167.112 748.428, 183 748.524 C 218.451 748.736, 228 749.173, 228 750.581 C 228 751.362, 228.540 752, 229.200 752 C 230.059 752, 230.093 752.307, 229.320 753.080 C 228.092 754.308, 202.428 754.445, 172.750 753.381 C 155.826 752.774, 154 752.867, 154 754.335 C 154 756.174, 155.132 756.492, 166.918 757.956 C 174.578 758.908, 178.744 760, 174.716 760 C 171.112 760, 162.864 762.263, 163.654 763.035 C 164.119 763.490, 178.788 763.972, 196.250 764.107 C 225.664 764.334, 228 764.480, 228 766.092 C 228 767.050, 228.563 768.038, 229.250 768.289 C 233.070 769.680, 220.154 770.183, 204.500 769.253 C 194.600 768.665, 180.875 768.101, 174 767.998 C 167.125 767.896, 159.925 767.691, 158 767.543 C 151.256 767.025, 149.724 769.321, 155.750 770.915 C 161.296 772.383, 177.337 773.838, 196 774.566 C 205.075 774.920, 213.400 775.354, 214.500 775.531 C 215.600 775.707, 219.277 775.885, 222.671 775.926 C 228.713 775.998, 228.855 776.063, 229.510 779.048 C 230.041 781.462, 230.460 781.863, 231.529 780.976 C 232.272 780.360, 234.144 780.046, 235.690 780.278 C 238.380 780.682, 238.361 780.707, 235.250 780.850 C 233.463 780.933, 232 781.421, 232 781.937 C 232 782.452, 233.463 783.055, 235.250 783.277 C 237.681 783.578, 237.273 783.720, 233.633 783.840 L 228.765 784 229.481 791.750 C 229.875 796.012, 230.622 799.656, 231.141 799.847 C 231.676 800.044, 231.569 800.814, 230.895 801.627 C 229.052 803.847, 231.287 807.770, 234.698 808.304 C 236.239 808.545, 235.588 808.630, 233.250 808.494 L 229 808.246 229 812.516 C 229 815.444, 228.515 816.972, 227.455 817.379 C 226.605 817.705, 221.543 817.771, 216.205 817.525 C 210.867 817.280, 194.125 816.826, 179 816.516 C 154.176 816.008, 151.690 816.102, 153.454 817.486 C 156.037 819.513, 161.449 820.960, 167 821.110 C 169.475 821.177, 170.712 821.438, 169.750 821.689 C 168.787 821.941, 168 822.532, 168 823.004 C 168 823.475, 166.988 824.085, 165.750 824.360 C 164.512 824.634, 168 824.606, 173.500 824.298 C 179 823.990, 193.618 823.684, 205.983 823.619 L 228.467 823.500 229.128 827.500 C 229.492 829.700, 229.574 831.725, 229.310 832 C 229.047 832.275, 211.432 832.382, 190.166 832.238 C 155.200 832.001, 151.758 832.121, 154.193 833.490 C 155.674 834.323, 160.374 835.489, 164.637 836.082 C 173.777 837.354, 204.969 837.822, 210 836.764 C 212.541 836.229, 212.815 836.270, 211 836.914 L 208.500 837.801 211 837.996 C 212.375 838.104, 216.965 838.262, 221.199 838.346 C 225.434 838.431, 229.342 838.950, 229.885 839.500 C 231.080 840.711, 231.628 868.174, 230.494 870.010 C 229.965 870.866, 230.084 871.066, 230.845 870.595 C 231.480 870.203, 232 870.359, 232 870.941 C 232 871.523, 231.550 872, 231 872 C 230.450 872, 230 873.890, 230 876.200 C 230 879.467, 229.733 880.133, 228.800 879.200 C 227.248 877.648, 210.169 877.611, 195.640 879.129 C 187.442 879.985, 181.102 879.973, 169.775 879.080 C 161.522 878.430, 154.514 878.153, 154.201 878.465 C 152.981 879.685, 156.087 881.262, 162.257 882.556 C 167.777 883.713, 204.381 887.289, 206.701 886.898 C 207.141 886.824, 212.563 886.816, 218.750 886.882 L 230 887 230 891.500 L 230 896 222.250 895.962 C 217.988 895.941, 202.575 895.240, 188 894.404 C 173.425 893.569, 159.925 892.798, 158 892.692 C 152.760 892.404, 153.431 895.102, 159 896.716 C 163.694 898.076, 193.520 901, 202.704 901 C 205.617 901, 208 900.550, 208 900 C 208 899.450, 209.238 899.032, 210.750 899.070 C 213.085 899.130, 213.205 899.256, 211.543 899.906 C 209.093 900.864, 216.467 902, 225.140 902 C 230.724 902, 231 902.118, 231 904.500 C 231 906.056, 231.567 907, 232.500 907 C 234.466 907, 234.454 910.889, 232.486 911.644 C 231.273 912.109, 231.032 913.793, 231.277 920.104 C 231.448 924.526, 232.113 928.513, 232.791 929.191 C 234.580 930.980, 234.372 935.357, 232.532 934.651 C 231.725 934.341, 230.842 934.446, 230.571 934.885 C 230.300 935.324, 222.668 935.975, 213.611 936.332 C 199.270 936.898, 185.832 938.278, 181.028 939.678 C 179.732 940.056, 179.732 940.229, 181.028 941.125 C 182.081 941.853, 181.220 941.988, 178 941.599 C 175.525 941.300, 169 940.791, 163.500 940.468 L 153.500 939.880 156.307 942.273 C 157.851 943.590, 159.651 944.709, 160.307 944.760 C 160.963 944.812, 167.800 945.596, 175.500 946.502 C 183.200 947.409, 198.683 948.455, 209.907 948.826 C 229.073 949.459, 230.331 949.618, 230.596 951.441 C 230.752 952.509, 231.135 954.400, 231.447 955.644 C 231.941 957.613, 231.534 957.997, 228.312 958.601 C 224.052 959.400, 166.011 957.148, 162.100 956.032 C 160.670 955.624, 158.617 955.602, 157.537 955.983 C 155.677 956.639, 155.703 956.755, 158.037 958.213 C 163.428 961.578, 178.455 963.328, 212.977 964.609 C 223.139 964.986, 232.589 965.676, 233.977 966.143 L 236.500 966.992 233.887 966.661 C 231.769 966.392, 231.364 966.678, 231.753 968.165 C 232.017 969.174, 232.631 970, 233.117 970 C 233.602 970, 234 970.675, 234 971.500 C 234 972.325, 233.550 973, 233 973 C 231.422 973, 231.836 979.619, 233.500 981 C 235.422 982.595, 235.422 985.405, 233.500 987 C 231.462 988.692, 231.606 991.750, 233.750 992.311 C 235.417 992.746, 235.417 992.774, 233.750 992.884 C 230.888 993.074, 231.765 994.994, 234.750 995.074 C 238.174 995.167, 242.224 995.890, 242.856 996.523 C 243.374 997.041, 238.502 997.142, 218.500 997.028 C 206.876 996.962, 182.449 999.103, 177.678 1000.606 C 176.622 1000.939, 176.084 1001.776, 176.398 1002.596 C 176.953 1004.040, 175.929 1004.033, 161.250 1002.486 C 156.598 1001.996, 155.992 1002.692, 158.902 1005.184 C 162.264 1008.063, 189.488 1011.784, 213 1012.579 C 222.075 1012.886, 230.063 1013.317, 230.750 1013.537 C 231.452 1013.762, 232 1015.554, 232 1017.623 L 232 1021.310 214.250 1020.686 C 198.902 1020.147, 172.736 1018.106, 160.785 1016.516 C 157.943 1016.137, 157.192 1016.338, 157.589 1017.370 C 158.779 1020.472, 166.077 1022.328, 185.596 1024.494 C 193.243 1025.342, 205.575 1026.267, 213 1026.548 C 220.425 1026.829, 229.504 1027.561, 233.175 1028.175 C 238.931 1029.139, 239.655 1029.488, 238.435 1030.708 C 237.657 1031.486, 236.116 1032.191, 235.010 1032.274 C 232.622 1032.454, 232.330 1036.032, 234.195 1042.255 C 235.218 1045.670, 235.160 1046.410, 233.789 1047.412 C 232.909 1048.056, 232.034 1050.364, 231.845 1052.541 C 231.503 1056.464, 231.538 1056.508, 235.750 1057.442 C 238.087 1057.960, 240 1058.796, 240 1059.299 C 240 1059.802, 239.289 1059.941, 238.421 1059.608 C 237.552 1059.275, 235.752 1059.275, 234.421 1059.609 C 232.455 1060.103, 232 1060.854, 232 1063.608 C 232 1066.148, 232.440 1067.016, 233.750 1067.063 C 234.975 1067.108, 234.751 1067.425, 233.004 1068.122 C 230.269 1069.213, 206.941 1068.609, 188.063 1066.959 C 177.216 1066.011, 175.085 1065.582, 176.111 1064.556 C 177.214 1063.453, 196.120 1061.689, 212.919 1061.122 C 223.762 1060.756, 231.468 1060.089, 231.653 1059.500 C 231.826 1058.950, 231.573 1057.876, 231.090 1057.113 C 229.203 1054.129, 192.929 1056.253, 178.627 1060.184 C 171.400 1062.170, 170.908 1062.466, 172.627 1063.792 C 174.290 1065.075, 173.627 1065.169, 166.696 1064.627 C 158.620 1063.995, 157.585 1064.728, 162.813 1067.374 C 169.453 1070.734, 200.787 1074.635, 223.250 1074.898 L 232 1075 232 1077.640 C 232 1079.092, 232.787 1080.917, 233.750 1081.695 C 235.267 1082.922, 232.233 1083.044, 211 1082.614 C 197.525 1082.341, 183.575 1081.687, 180 1081.161 C 166.011 1079.101, 160 1078.853, 160 1080.335 C 160 1081.919, 167.238 1084.354, 177 1086.054 C 184.510 1087.362, 206.947 1087.815, 215 1086.821 L 220.500 1086.142 216.500 1087.494 L 212.500 1088.846 218 1089.016 C 221.025 1089.109, 225.365 1089.113, 227.645 1089.024 C 230.951 1088.895, 232.120 1089.331, 233.423 1091.181 C 234.808 1093.148, 235.204 1093.272, 236.028 1092 C 236.892 1090.667, 237.110 1090.667, 237.989 1092 C 238.534 1092.825, 238.759 1094.099, 238.489 1094.832 C 238.220 1095.564, 237.931 1103.439, 237.846 1112.332 L 237.692 1128.500 236.902 1118.500 C 236.468 1113, 236.365 1105.688, 236.673 1102.250 C 237.152 1096.903, 236.997 1096, 235.598 1096 C 234.124 1096, 233.990 1098.288, 234.232 1119.250 L 234.500 1142.500 251.500 1142.319 C 277.996 1142.036, 369.070 1140.056, 404.500 1138.992 C 422.100 1138.464, 467.550 1137.351, 505.500 1136.519 C 543.450 1135.687, 591.150 1134.551, 611.500 1133.994 C 631.850 1133.438, 683.825 1132.309, 727 1131.485 C 807.938 1129.942, 965.189 1126.530, 1009.771 1125.350 L 1035.042 1124.681 1035.621 1122.374 C 1036.227 1119.960, 1034.760 992.173, 1032.977 892 C 1031.711 820.862, 1028.410 541.406, 1026.993 385.500 C 1026.424 322.800, 1025.517 231.074, 1024.979 181.665 C 1024.441 132.256, 1024 87.144, 1024 81.415 L 1024 71 996.250 71.171 C 980.987 71.264, 930.925 71.675, 885 72.083 M 244 123 C 244 123.550, 244.450 124, 245 124 C 245.550 124, 246 123.550, 246 123 C 246 122.450, 245.550 122, 245 122 C 244.450 122, 244 122.450, 244 123 M 248 123 C 248 123.550, 248.477 124, 249.059 124 C 249.641 124, 249.840 123.550, 249.500 123 C 249.160 122.450, 248.684 122, 248.441 122 C 248.198 122, 248 122.450, 248 123 M 195.500 127.949 C 197.401 128.815, 204.794 129.411, 203.917 128.628 C 203.688 128.424, 201.250 127.982, 198.500 127.648 C 195.134 127.238, 194.154 127.336, 195.500 127.949 M 264 127.387 C 264 127.599, 265.326 127.968, 266.947 128.206 C 268.568 128.443, 269.667 128.270, 269.388 127.819 C 268.893 127.017, 264 126.625, 264 127.387 M 270.336 137 C 270.336 141.125, 270.513 142.813, 270.728 140.750 C 270.944 138.688, 270.944 135.313, 270.728 133.250 C 270.513 131.188, 270.336 132.875, 270.336 137 M 198.547 136.905 C 196.897 137.550, 197.116 137.773, 199.957 138.341 C 203.698 139.090, 205.229 138.389, 202.971 136.961 C 201.273 135.887, 201.153 135.885, 198.547 136.905 M 146.441 147.904 C 148.115 150.613, 161.716 156.104, 173.549 158.848 C 190.129 162.693, 209.517 166, 215.483 166 C 219.740 166, 220.112 165.807, 219.820 163.750 C 219.533 161.730, 218.631 161.379, 211 160.320 C 184.775 156.681, 160.796 152.166, 160.167 150.750 C 159.983 150.338, 157.932 150, 155.608 150 C 153.284 150, 150.509 149.339, 149.441 148.532 C 147.258 146.881, 145.593 146.533, 146.441 147.904 M 240.079 150.583 C 240.127 151.748, 240.364 151.985, 240.683 151.188 C 240.972 150.466, 240.936 149.603, 240.604 149.271 C 240.272 148.939, 240.036 149.529, 240.079 150.583 M 196.762 184.707 C 198.006 184.946, 199.806 184.937, 200.762 184.687 C 201.718 184.437, 200.700 184.241, 198.500 184.252 C 196.300 184.263, 195.518 184.468, 196.762 184.707 M 263.733 185.124 C 264.412 185.808, 265.219 186.115, 265.526 185.807 C 265.834 185.499, 265.279 184.940, 264.293 184.564 C 262.868 184.022, 262.753 184.136, 263.733 185.124 M 253 186 C 254.970 187.273, 257.287 187.273, 256.500 186 C 256.160 185.450, 254.896 185.007, 253.691 185.015 C 251.910 185.028, 251.781 185.212, 253 186 M 270.079 197.191 C 270.036 200.321, 270.382 203.118, 270.850 203.407 C 271.317 203.696, 271.507 201.585, 271.271 198.716 C 270.655 191.233, 270.170 190.612, 270.079 197.191 M 150.558 194.775 C 150.251 195.082, 150 195.708, 150 196.167 C 150 197.282, 153.736 197.237, 154.430 196.114 C 155.037 195.131, 151.444 193.889, 150.558 194.775 M 197.550 199.933 C 198.106 200.480, 199.952 200.522, 202 200.036 L 205.500 199.205 201.050 199.102 C 198.284 199.039, 196.960 199.353, 197.550 199.933 M 249 200 C 249 200.550, 249.702 201, 250.559 201 C 251.416 201, 251.840 200.550, 251.500 200 C 251.160 199.450, 250.459 199, 249.941 199 C 249.423 199, 249 199.450, 249 200 M 259.143 200.907 C 258.137 201.532, 258.090 201.937, 258.960 202.475 C 260.332 203.323, 261.362 202.572, 260.854 201.095 C 260.646 200.489, 259.940 200.412, 259.143 200.907 M 200 201.916 C 200 202.433, 202.588 203.114, 205.750 203.430 C 208.912 203.746, 213.650 204.378, 216.277 204.834 C 219.595 205.411, 220.945 205.334, 220.696 204.582 C 220.498 203.987, 217.448 203.190, 213.918 202.810 C 210.388 202.431, 205.813 201.863, 203.750 201.549 C 201.671 201.231, 200 201.395, 200 201.916 M 270.200 209.506 C 270.200 211.431, 270.605 213.256, 271.100 213.562 C 271.595 213.868, 272 212.543, 272 210.618 C 272 208.693, 271.595 206.868, 271.100 206.562 C 270.605 206.256, 270.200 207.581, 270.200 209.506 M 149 208.436 C 149 209.740, 162.084 215.207, 169.493 216.998 C 179.992 219.536, 204.690 223.771, 214.085 224.644 C 220.569 225.247, 221 225.161, 221 223.266 C 221 220.602, 219.262 219.400, 215.045 219.145 C 209.196 218.792, 182.904 215.079, 175.341 213.538 C 171.403 212.735, 164.663 211.642, 160.363 211.108 C 156.064 210.574, 152.385 209.656, 152.190 209.069 C 151.854 208.063, 149 207.497, 149 208.436 M 223 211.500 C 223 212.265, 223.936 212.544, 225.500 212.245 C 226.875 211.982, 228 211.647, 228 211.500 C 228 211.353, 226.875 211.018, 225.500 210.755 C 223.936 210.456, 223 210.735, 223 211.500 M 240 212.941 C 240 214.009, 240.385 215.120, 240.856 215.411 C 241.326 215.702, 241.499 214.828, 241.239 213.470 C 240.675 210.519, 240 210.231, 240 212.941 M 197 248 C 194.927 248.664, 195.269 248.815, 199 248.885 C 202.248 248.946, 203.083 248.700, 202 248 C 200.311 246.908, 200.409 246.908, 197 248 M 258.750 248.662 C 259.438 248.940, 260.563 248.940, 261.250 248.662 C 261.938 248.385, 261.375 248.158, 260 248.158 C 258.625 248.158, 258.063 248.385, 258.750 248.662 M 271.158 255 C 271.158 256.375, 271.385 256.938, 271.662 256.250 C 271.940 255.563, 271.940 254.438, 271.662 253.750 C 271.385 253.063, 271.158 253.625, 271.158 255 M 153.500 260 C 153.840 260.550, 155.216 261, 156.559 261 C 157.902 261, 159 260.550, 159 260 C 159 259.450, 157.623 259, 155.941 259 C 154.156 259, 153.139 259.417, 153.500 260 M 248.694 263.639 C 247.768 264.565, 248.883 266, 250.528 266 C 251.370 266, 251.706 265.396, 251.362 264.500 C 250.751 262.909, 249.748 262.586, 248.694 263.639 M 203 266 C 203 267.264, 205.043 267.264, 207 266 C 208.169 265.245, 207.893 265.027, 205.750 265.015 C 204.238 265.007, 203 265.450, 203 266 M 152 273.500 C 152 274.325, 152.787 275.006, 153.750 275.014 C 154.713 275.021, 156.512 275.299, 157.750 275.630 C 159.100 275.992, 160 275.787, 160 275.117 C 160 274.502, 158.902 274, 157.559 274 C 156.216 274, 154.840 273.550, 154.500 273 C 153.566 271.489, 152 271.802, 152 273.500 M 161 275.915 C 161 278.332, 164.983 279.378, 186 282.485 C 207.135 285.609, 220.012 286.690, 221.059 285.429 C 222.379 283.838, 221.173 281.014, 219.143 280.943 C 218.239 280.911, 215.475 280.707, 213 280.490 C 210.525 280.273, 205.125 279.824, 201 279.494 C 196.875 279.164, 189 278.272, 183.500 277.512 C 166.992 275.232, 161 274.807, 161 275.915 M 240 275.941 C 240 276.459, 240.450 277.160, 241 277.500 C 241.550 277.840, 242 277.416, 242 276.559 C 242 275.702, 241.550 275, 241 275 C 240.450 275, 240 275.423, 240 275.941 M 244.500 279 C 244.160 279.550, 244.584 280, 245.441 280 C 246.298 280, 247 279.550, 247 279 C 247 278.450, 246.577 278, 246.059 278 C 245.541 278, 244.840 278.450, 244.500 279 M 249.250 279.689 C 250.213 279.941, 251.787 279.941, 252.750 279.689 C 253.713 279.438, 252.925 279.232, 251 279.232 C 249.075 279.232, 248.287 279.438, 249.250 279.689 M 256.813 279.683 C 257.534 279.972, 258.397 279.936, 258.729 279.604 C 259.061 279.272, 258.471 279.036, 257.417 279.079 C 256.252 279.127, 256.015 279.364, 256.813 279.683 M 250.500 310 C 250.840 310.550, 252.329 310.993, 253.809 310.985 C 255.914 310.973, 256.173 310.758, 255 310 C 253.024 308.723, 249.711 308.723, 250.500 310 M 201 314 C 199.818 314.764, 200.030 314.958, 202 314.914 C 203.375 314.884, 205.400 314.473, 206.500 314 C 208.217 313.262, 208.076 313.133, 205.500 313.086 C 203.850 313.055, 201.825 313.467, 201 314 M 270.250 315.080 C 271.758 315.958, 272 317.708, 272 327.716 C 272 334.106, 272.249 339.084, 272.553 338.780 C 273.378 337.955, 273.398 318.828, 272.576 316.239 C 272.185 315.008, 271.108 314.014, 270.183 314.030 C 268.648 314.058, 268.654 314.150, 270.250 315.080 M 250 328 C 250 328.550, 250.702 329, 251.559 329 C 252.416 329, 252.840 328.550, 252.500 328 C 252.160 327.450, 251.459 327, 250.941 327 C 250.423 327, 250 327.450, 250 328 M 203 330 C 201.787 330.784, 201.931 330.972, 203.750 330.985 C 204.988 330.993, 206 330.550, 206 330 C 206 328.747, 204.939 328.747, 203 330 M 159.500 335.918 C 156.620 336.572, 156.700 336.645, 161.500 337.738 C 168.939 339.433, 178.089 340.738, 191.500 342.016 C 198.100 342.645, 206.874 343.502, 210.999 343.921 C 220.212 344.857, 222.204 344.432, 221.802 341.620 C 221.528 339.700, 220.652 339.436, 212.500 338.820 C 207.550 338.446, 196.340 337.434, 187.589 336.570 C 170.954 334.929, 164.515 334.779, 159.500 335.918 M 241.707 337.665 C 241.352 338.240, 242.060 339.562, 243.281 340.605 C 245.236 342.275, 246.630 342.434, 255 341.941 L 264.500 341.383 254.403 341.191 C 245.072 341.015, 244.231 340.834, 243.329 338.811 C 242.767 337.553, 242.078 337.065, 241.707 337.665 M 270 341 C 268.718 341.828, 268.754 341.972, 270.250 341.985 C 271.212 341.993, 272 341.550, 272 341 C 272 339.780, 271.887 339.780, 270 341 M 254 370 C 254 370.550, 254.450 371, 255 371 C 255.550 371, 256 370.550, 256 370 C 256 369.450, 255.550 369, 255 369 C 254.450 369, 254 369.450, 254 370 M 251.269 373.693 C 252.242 373.947, 253.592 373.930, 254.269 373.656 C 254.946 373.382, 254.150 373.175, 252.500 373.195 C 250.850 373.215, 250.296 373.439, 251.269 373.693 M 258.750 373.723 C 260.538 373.945, 263.462 373.945, 265.250 373.723 C 267.038 373.502, 265.575 373.320, 262 373.320 C 258.425 373.320, 256.962 373.502, 258.750 373.723 M 204.269 378.693 C 205.242 378.947, 206.592 378.930, 207.269 378.656 C 207.946 378.382, 207.150 378.175, 205.500 378.195 C 203.850 378.215, 203.296 378.439, 204.269 378.693 M 273.857 382.250 C 273.651 383.488, 273.746 388.550, 274.068 393.500 L 274.655 402.500 274.828 391.250 C 274.993 380.474, 274.664 377.422, 273.857 382.250 M 242.500 387 C 242.840 387.550, 243.316 388, 243.559 388 C 243.802 388, 244 387.550, 244 387 C 244 386.450, 243.523 386, 242.941 386 C 242.359 386, 242.160 386.450, 242.500 387 M 223.079 390.583 C 223.127 391.748, 223.364 391.985, 223.683 391.188 C 223.972 390.466, 223.936 389.603, 223.604 389.271 C 223.272 388.939, 223.036 389.529, 223.079 390.583 M 251.813 393.683 C 252.534 393.972, 253.397 393.936, 253.729 393.604 C 254.061 393.272, 253.471 393.036, 252.417 393.079 C 251.252 393.127, 251.015 393.364, 251.813 393.683 M 205.269 395.693 C 206.242 395.947, 207.592 395.930, 208.269 395.656 C 208.946 395.382, 208.150 395.175, 206.500 395.195 C 204.850 395.215, 204.296 395.439, 205.269 395.693 M 247.787 403.820 C 246.844 404.194, 251.745 404.399, 258.677 404.276 C 265.609 404.153, 271.518 403.816, 271.807 403.526 C 272.586 402.747, 249.788 403.026, 247.787 403.820 M 247.010 436.027 C 248.696 437.093, 252.690 437.357, 251.668 436.335 C 251.302 435.969, 249.769 435.538, 248.262 435.378 C 246.224 435.160, 245.903 435.327, 247.010 436.027 M 254.623 436.198 C 255.249 437.212, 263.723 437.257, 264.344 436.250 C 264.598 435.837, 262.404 435.477, 259.467 435.448 C 256.530 435.420, 254.350 435.757, 254.623 436.198 M 274.385 452 C 274.385 458.875, 274.545 461.688, 274.740 458.250 C 274.936 454.813, 274.936 449.188, 274.740 445.750 C 274.545 442.313, 274.385 445.125, 274.385 452 M 202.762 443.707 C 204.006 443.946, 205.806 443.937, 206.762 443.687 C 207.718 443.437, 206.700 443.241, 204.500 443.252 C 202.300 443.263, 201.518 443.468, 202.762 443.707 M 188 445.872 C 185.020 446.312, 190.212 446.798, 203.372 447.313 C 221.187 448.008, 225.278 447.870, 223.917 446.616 C 223.093 445.858, 192.401 445.222, 188 445.872 M 251.800 454.200 C 252.733 455.133, 253.267 455.133, 254.200 454.200 C 255.133 453.267, 254.867 453, 253 453 C 251.133 453, 250.867 453.267, 251.800 454.200 M 262.813 453.683 C 263.534 453.972, 264.397 453.936, 264.729 453.604 C 265.061 453.272, 264.471 453.036, 263.417 453.079 C 262.252 453.127, 262.015 453.364, 262.813 453.683 M 202 458 C 202 459.187, 203.737 459.187, 206.500 458 C 208.176 457.280, 207.974 457.129, 205.250 457.070 C 203.463 457.032, 202 457.450, 202 458 M 197.500 461.033 C 208.573 462.170, 225.210 462.149, 224.500 461 C 224.121 460.387, 217.415 460.061, 207.191 460.157 C 193.917 460.282, 191.933 460.462, 197.500 461.033 M 242.500 464 C 242.160 464.550, 242.359 465, 242.941 465 C 243.523 465, 244 464.550, 244 464 C 244 463.450, 243.802 463, 243.559 463 C 243.316 463, 242.840 463.450, 242.500 464 M 245 466.383 C 245 467.293, 248.898 467.679, 250.139 466.893 C 251.064 466.307, 250.460 466.026, 248.250 466.015 C 246.463 466.007, 245 466.173, 245 466.383 M 256.500 466.634 C 263.570 467.374, 272.779 467.441, 272.349 466.750 C 272.092 466.337, 267.746 466.072, 262.691 466.160 C 257.636 466.248, 254.850 466.461, 256.500 466.634 M 418 474.059 C 418 474.641, 418.450 474.840, 419 474.500 C 419.550 474.160, 420 473.684, 420 473.441 C 420 473.198, 419.550 473, 419 473 C 418.450 473, 418 473.477, 418 474.059 M 412 477.059 C 412 477.641, 412.450 477.840, 413 477.500 C 413.550 477.160, 414 476.684, 414 476.441 C 414 476.198, 413.550 476, 413 476 C 412.450 476, 412 476.477, 412 477.059 M 253.500 497.365 C 254.692 498.301, 257.318 498.905, 260 498.859 L 264.500 498.781 260.146 497.925 C 257.751 497.454, 254.826 496.782, 253.646 496.431 C 251.521 495.799, 251.520 495.809, 253.500 497.365 M 265.500 497 C 265.160 497.550, 265.359 498, 265.941 498 C 266.523 498, 267 497.550, 267 497 C 267 496.450, 266.802 496, 266.559 496 C 266.316 496, 265.840 496.450, 265.500 497 M 247 498.139 C 247 498.612, 248.125 499, 249.500 499 C 250.875 499, 252 498.827, 252 498.617 C 252 498.406, 250.875 498.018, 249.500 497.755 C 248.125 497.492, 247 497.665, 247 498.139 M 273 500.941 C 273 501.459, 273.450 502.160, 274 502.500 C 274.550 502.840, 275 502.416, 275 501.559 C 275 500.702, 274.550 500, 274 500 C 273.450 500, 273 500.423, 273 500.941 M 274 513.774 C 274 519.334, 274.391 524.124, 274.869 524.419 C 275.731 524.952, 275.320 504.986, 274.451 504.117 C 274.203 503.870, 274 508.215, 274 513.774 M 205.750 505.662 C 206.438 505.940, 207.563 505.940, 208.250 505.662 C 208.938 505.385, 208.375 505.158, 207 505.158 C 205.625 505.158, 205.063 505.385, 205.750 505.662 M 243 512 C 243 512.550, 243.450 513, 244 513 C 244.550 513, 245 512.550, 245 512 C 245 511.450, 244.550 511, 244 511 C 243.450 511, 243 511.450, 243 512 M 252 518 C 252 518.550, 252.900 519, 254 519 C 255.100 519, 256 518.550, 256 518 C 256 517.450, 255.100 517, 254 517 C 252.900 517, 252 517.450, 252 518 M 435.584 521.641 C 435.057 523.014, 435.204 523.076, 436.477 522.019 C 438.212 520.579, 438.393 520, 437.107 520 C 436.616 520, 435.931 520.739, 435.584 521.641 M 205.813 522.683 C 206.534 522.972, 207.397 522.936, 207.729 522.604 C 208.061 522.272, 207.471 522.036, 206.417 522.079 C 205.252 522.127, 205.015 522.364, 205.813 522.683 M 445 525.059 C 445 525.641, 445.450 525.840, 446 525.500 C 446.550 525.160, 447 524.684, 447 524.441 C 447 524.198, 446.550 524, 446 524 C 445.450 524, 445 524.477, 445 525.059 M 500.500 527 C 500.160 527.550, 500.359 528, 500.941 528 C 501.523 528, 502 527.550, 502 527 C 502 526.450, 501.802 526, 501.559 526 C 501.316 526, 500.840 526.450, 500.500 527 M 253.750 528.740 C 257.188 528.936, 262.813 528.936, 266.250 528.740 C 269.688 528.545, 266.875 528.385, 260 528.385 C 253.125 528.385, 250.313 528.545, 253.750 528.740 M 246.599 560.839 C 245.874 562.012, 252.182 562.128, 254.005 560.976 C 255.084 560.294, 254.332 560.026, 251.309 560.015 C 249.004 560.007, 246.885 560.378, 246.599 560.839 M 256 561.276 C 256 561.703, 258.596 561.950, 261.769 561.825 C 264.943 561.700, 268.205 561.979, 269.019 562.445 C 270.198 563.120, 270.254 563.028, 269.296 561.993 C 268 560.592, 255.999 559.946, 256 561.276 M 275.015 565.691 C 275.024 566.686, 275.417 568.111, 275.890 568.857 C 276.496 569.813, 276.750 569.438, 276.750 567.589 C 276.750 566.145, 276.356 564.720, 275.875 564.423 C 275.394 564.125, 275.007 564.696, 275.015 565.691 M 252.605 577.830 C 252.285 578.348, 253.161 578.989, 254.551 579.255 C 256.146 579.559, 256.942 579.325, 256.707 578.619 C 256.223 577.166, 253.356 576.615, 252.605 577.830 M 262.750 578.662 C 263.438 578.940, 264.563 578.940, 265.250 578.662 C 265.938 578.385, 265.375 578.158, 264 578.158 C 262.625 578.158, 262.063 578.385, 262.750 578.662 M 275 582 C 275 583.100, 275.173 584, 275.383 584 C 275.594 584, 276.002 583.100, 276.290 582 C 276.577 580.900, 276.405 580, 275.906 580 C 275.408 580, 275 580.900, 275 582 M 208.813 583.683 C 209.534 583.972, 210.397 583.936, 210.729 583.604 C 211.061 583.272, 210.471 583.036, 209.417 583.079 C 208.252 583.127, 208.015 583.364, 208.813 583.683 M 275.543 585.931 C 275.226 586.443, 275.425 587.144, 275.984 587.490 C 276.543 587.835, 277 587.416, 277 586.559 C 277 584.802, 276.400 584.544, 275.543 585.931 M 244.583 587.866 C 244.152 588.563, 244.070 589.403, 244.400 589.733 C 245.295 590.628, 246.271 589.312, 245.787 587.862 C 245.449 586.846, 245.213 586.846, 244.583 587.866 M 253.206 591.741 C 256.895 591.932, 263.195 591.934, 267.206 591.743 C 271.218 591.553, 268.200 591.396, 260.500 591.395 C 252.800 591.393, 249.518 591.549, 253.206 591.741 M 432 592.969 C 432 593.501, 432.675 593.678, 433.500 593.362 C 434.325 593.045, 435 592.609, 435 592.393 C 435 592.177, 434.325 592, 433.500 592 C 432.675 592, 432 592.436, 432 592.969 M 447 596.906 C 447 597.405, 447.900 597.577, 449 597.290 C 450.100 597.002, 451 596.594, 451 596.383 C 451 596.173, 450.100 596, 449 596 C 447.900 596, 447 596.408, 447 596.906 M 443 610 C 443 610.550, 443.477 611, 444.059 611 C 444.641 611, 444.840 610.550, 444.500 610 C 444.160 609.450, 443.684 609, 443.441 609 C 443.198 609, 443 609.450, 443 610 M 229 617 C 229 617.550, 229.450 618, 230 618 C 230.550 618, 231 617.550, 231 617 C 231 616.450, 230.550 616, 230 616 C 229.450 616, 229 616.450, 229 617 M 251 623 C 251 623.550, 251.702 624, 252.559 624 C 253.416 624, 253.840 623.550, 253.500 623 C 253.160 622.450, 252.459 622, 251.941 622 C 251.423 622, 251 622.450, 251 623 M 450.158 626 C 450.158 627.375, 450.385 627.938, 450.662 627.250 C 450.940 626.563, 450.940 625.438, 450.662 624.750 C 450.385 624.063, 450.158 624.625, 450.158 626 M 276.667 628.667 C 275.680 629.653, 275.856 652, 276.850 652 C 277.318 652, 277.705 646.600, 277.710 640 C 277.715 633.400, 277.632 628, 277.526 628 C 277.420 628, 277.033 628.300, 276.667 628.667 M 443.500 635 C 443.160 635.550, 443.359 636, 443.941 636 C 444.523 636, 445 635.550, 445 635 C 445 634.450, 444.802 634, 444.559 634 C 444.316 634, 443.840 634.450, 443.500 635 M 254.473 643.044 C 254.148 643.570, 254.809 644, 255.941 644 C 258.356 644, 258.599 643.444, 256.532 642.651 C 255.725 642.341, 254.798 642.518, 254.473 643.044 M 210.269 646.693 C 211.242 646.947, 212.592 646.930, 213.269 646.656 C 213.946 646.382, 213.150 646.175, 211.500 646.195 C 209.850 646.215, 209.296 646.439, 210.269 646.693 M 461.079 650.583 C 461.127 651.748, 461.364 651.985, 461.683 651.188 C 461.972 650.466, 461.936 649.603, 461.604 649.271 C 461.272 648.939, 461.036 649.529, 461.079 650.583 M 490.500 651 C 490.160 651.550, 490.359 652, 490.941 652 C 491.523 652, 492 651.550, 492 651 C 492 650.450, 491.802 650, 491.559 650 C 491.316 650, 490.840 650.450, 490.500 651 M 252 654 C 248.901 654.482, 251.645 654.746, 260.809 654.850 C 269.464 654.947, 273.902 654.650, 273.500 654 C 272.818 652.896, 259.102 652.896, 252 654 M 482.500 659 C 482.160 659.550, 482.359 660, 482.941 660 C 483.523 660, 484 659.550, 484 659 C 484 658.450, 483.802 658, 483.559 658 C 483.316 658, 482.840 658.450, 482.500 659 M 444 676 C 444 676.550, 444.450 677, 445 677 C 445.550 677, 446 676.550, 446 676 C 446 675.450, 445.550 675, 445 675 C 444.450 675, 444 675.450, 444 676 M 231.624 681.539 C 230.659 684.053, 230.943 684.702, 232.122 682.675 C 232.706 681.671, 232.973 680.639, 232.715 680.382 C 232.458 680.124, 231.966 680.645, 231.624 681.539 M 439.564 681.707 C 439.022 683.132, 439.136 683.247, 440.124 682.267 C 440.808 681.588, 441.115 680.781, 440.807 680.474 C 440.499 680.166, 439.940 680.721, 439.564 681.707 M 248 685.821 C 248 686.272, 251.938 686.471, 256.750 686.263 C 269.415 685.714, 270.023 685.249, 258.250 685.116 C 252.613 685.052, 248 685.369, 248 685.821 M 271 687 C 271.825 687.533, 273.175 687.969, 274 687.969 C 275.333 687.969, 275.333 687.862, 274 687 C 273.175 686.467, 271.825 686.031, 271 686.031 C 269.667 686.031, 269.667 686.138, 271 687 M 276.543 690.931 C 275.860 692.036, 277.437 693.230, 278.361 692.306 C 279.311 691.355, 279.134 690, 278.059 690 C 277.541 690, 276.859 690.419, 276.543 690.931 M 488 692 C 488 692.550, 488.477 693, 489.059 693 C 489.641 693, 489.840 692.550, 489.500 692 C 489.160 691.450, 488.684 691, 488.441 691 C 488.198 691, 488 691.450, 488 692 M 439 693.906 C 439 694.405, 439.900 694.577, 441 694.290 C 442.100 694.002, 443 693.594, 443 693.383 C 443 693.173, 442.100 693, 441 693 C 439.900 693, 439 693.408, 439 693.906 M 277 704 C 277 709.683, 277.196 714.138, 277.435 713.899 C 278.144 713.189, 278.333 695, 277.638 694.305 C 277.287 693.954, 277 698.317, 277 704 M 208.750 695.662 C 209.438 695.940, 210.563 695.940, 211.250 695.662 C 211.938 695.385, 211.375 695.158, 210 695.158 C 208.625 695.158, 208.063 695.385, 208.750 695.662 M 246 700 C 246 700.550, 246.450 701, 247 701 C 247.550 701, 248 700.550, 248 700 C 248 699.450, 247.550 699, 247 699 C 246.450 699, 246 699.450, 246 700 M 254 705 C 254 705.550, 255.125 706, 256.500 706 C 257.875 706, 259 705.550, 259 705 C 259 704.450, 257.875 704, 256.500 704 C 255.125 704, 254 704.450, 254 705 M 207.250 709.689 C 208.213 709.941, 209.787 709.941, 210.750 709.689 C 211.713 709.438, 210.925 709.232, 209 709.232 C 207.075 709.232, 206.287 709.438, 207.250 709.689 M 231.029 716.961 C 228.952 718.275, 230.014 718.917, 233.238 718.297 C 234.744 718.008, 235.730 717.373, 235.429 716.886 C 234.726 715.748, 232.897 715.779, 231.029 716.961 M 251 716.943 C 251 718.015, 257.506 717.827, 258.610 716.723 C 259.008 716.325, 257.458 716, 255.167 716 C 252.875 716, 251 716.424, 251 716.943 M 266.768 716.725 C 268.565 716.947, 271.265 716.943, 272.768 716.715 C 274.271 716.486, 272.800 716.304, 269.500 716.310 C 266.200 716.315, 264.971 716.502, 266.768 716.725 M 598.500 720 C 598.160 720.550, 598.359 721, 598.941 721 C 599.523 721, 600 720.550, 600 720 C 600 719.450, 599.802 719, 599.559 719 C 599.316 719, 598.840 719.450, 598.500 720 M 231.272 724 C 231.272 726.475, 231.467 727.487, 231.706 726.250 C 231.944 725.013, 231.944 722.987, 231.706 721.750 C 231.467 720.513, 231.272 721.525, 231.272 724 M 588 726 C 586.718 726.828, 586.754 726.972, 588.250 726.985 C 589.212 726.993, 590 726.550, 590 726 C 590 724.780, 589.887 724.780, 588 726 M 250.500 748 C 250.160 748.550, 250.835 749, 252 749 C 253.165 749, 253.840 748.550, 253.500 748 C 253.160 747.450, 252.485 747, 252 747 C 251.515 747, 250.840 747.450, 250.500 748 M 257.425 748.121 C 257.126 748.604, 259.721 748.964, 263.191 748.921 C 270.162 748.834, 270.002 748.408, 262.734 747.704 C 260.113 747.450, 257.724 747.638, 257.425 748.121 M 272.250 749.689 C 273.212 749.941, 274.788 749.941, 275.750 749.689 C 276.712 749.438, 275.925 749.232, 274 749.232 C 272.075 749.232, 271.288 749.438, 272.250 749.689 M 278.667 751.667 C 277.758 752.576, 277.847 775.211, 278.765 776.657 C 279.169 777.294, 279.500 771.782, 279.500 764.408 C 279.500 757.035, 279.462 751.002, 279.417 751.001 C 279.371 751.001, 279.033 751.300, 278.667 751.667 M 209.269 757.693 C 210.242 757.947, 211.592 757.930, 212.269 757.656 C 212.946 757.382, 212.150 757.175, 210.500 757.195 C 208.850 757.215, 208.296 757.439, 209.269 757.693 M 156.500 763 C 156.840 763.550, 157.766 764, 158.559 764 C 159.352 764, 160 763.550, 160 763 C 160 762.450, 159.073 762, 157.941 762 C 156.809 762, 156.160 762.450, 156.500 763 M 247.211 763.601 C 246.501 764.370, 246.362 765, 246.902 765 C 247.940 765, 249.443 763.098, 248.850 762.534 C 248.658 762.351, 247.920 762.831, 247.211 763.601 M 255.750 768.662 C 256.438 768.940, 257.563 768.940, 258.250 768.662 C 258.938 768.385, 258.375 768.158, 257 768.158 C 255.625 768.158, 255.063 768.385, 255.750 768.662 M 210 773 C 208.787 773.784, 208.931 773.972, 210.750 773.985 C 211.988 773.993, 213 773.550, 213 773 C 213 771.747, 211.939 771.747, 210 773 M 248 779.307 C 248 780.319, 273.820 779.514, 274.864 778.469 C 275.211 778.123, 269.308 777.963, 261.747 778.114 C 254.186 778.265, 248 778.802, 248 779.307 M 192 804.589 C 191.175 804.785, 185.704 805.367, 179.842 805.883 C 173.979 806.398, 167.679 807.474, 165.842 808.274 C 164.004 809.074, 161.375 810.203, 160 810.783 C 157.694 811.757, 157.771 811.807, 161 811.430 C 169.577 810.428, 200.052 809, 212.865 809 C 225.576 809, 227.026 808.820, 227.930 807.131 C 228.480 806.104, 228.645 804.979, 228.298 804.631 C 227.651 803.984, 194.704 803.946, 192 804.589 M 254.311 809.917 C 246.498 810.861, 247.218 811.510, 256.074 811.505 C 260.428 811.502, 263.993 811.163, 263.995 810.750 C 263.998 810.337, 263.587 810, 263.082 810 C 262.577 810, 261.564 809.840, 260.832 809.645 C 260.099 809.450, 257.165 809.573, 254.311 809.917 M 270.500 812 C 270.840 812.550, 271.316 813, 271.559 813 C 271.802 813, 272 812.550, 272 812 C 272 811.450, 271.523 811, 270.941 811 C 270.359 811, 270.160 811.450, 270.500 812 M 273.507 811.989 C 273.156 812.557, 273.561 812.722, 274.461 812.377 C 277.434 811.236, 278.695 813.627, 278.210 819.484 C 277.958 822.518, 278.160 825, 278.658 825 C 279.932 825, 280.049 813.768, 278.791 812.250 C 277.554 810.757, 274.365 810.600, 273.507 811.989 M 209.500 821 C 208.239 821.542, 208.055 821.859, 209 821.859 C 209.825 821.859, 211.400 821.473, 212.500 821 C 213.761 820.458, 213.945 820.141, 213 820.141 C 212.175 820.141, 210.600 820.527, 209.500 821 M 158.500 824 C 158.160 824.550, 158.359 825, 158.941 825 C 159.523 825, 160 824.550, 160 824 C 160 823.450, 159.802 823, 159.559 823 C 159.316 823, 158.840 823.450, 158.500 824 M 246.565 824.895 C 246.260 825.388, 246.684 826.048, 247.506 826.364 C 248.413 826.712, 249 826.361, 249 825.469 C 249 823.851, 247.437 823.483, 246.565 824.895 M 278 828.559 C 278 829.416, 278.450 829.840, 279 829.500 C 279.550 829.160, 280 828.459, 280 827.941 C 280 827.423, 279.550 827, 279 827 C 278.450 827, 278 827.702, 278 828.559 M 256 830 C 256 830.550, 256.927 831, 258.059 831 C 259.191 831, 259.840 830.550, 259.500 830 C 259.160 829.450, 258.234 829, 257.441 829 C 256.648 829, 256 829.450, 256 830 M 278.907 831.750 C 278.352 836.214, 278.464 840, 279.151 840 C 279.618 840, 280 837.975, 280 835.500 C 280 833.025, 279.775 831, 279.500 831 C 279.225 831, 278.958 831.337, 278.907 831.750 M 248 841.981 C 248 842.589, 251.255 843, 256.059 843 C 260.491 843, 263.889 842.629, 263.609 842.176 C 262.850 840.947, 248 840.762, 248 841.981 M 181.500 864.990 C 172.864 865.850, 166 867.710, 166 869.191 C 166 869.990, 169.323 870.088, 177.750 869.538 C 184.213 869.116, 198.160 868.626, 208.743 868.448 C 219.327 868.271, 228.420 867.858, 228.950 867.531 C 229.479 867.204, 229.659 866.275, 229.349 865.468 C 228.877 864.238, 225.525 864.024, 208.643 864.147 C 197.564 864.227, 185.350 864.607, 181.500 864.990 M 160 871 C 160 871.550, 161.012 871.993, 162.250 871.985 C 164.069 871.972, 164.213 871.784, 163 871 C 161.061 869.747, 160 869.747, 160 871 M 249.388 873.182 C 249.110 873.632, 252.059 874, 255.941 874 C 259.823 874, 263 873.663, 263 873.250 C 263 872.224, 250.020 872.159, 249.388 873.182 M 266 873.062 C 264.037 873.642, 264.520 873.822, 268.250 873.900 C 270.863 873.955, 273 873.663, 272.999 873.250 C 272.998 872.249, 269.107 872.145, 266 873.062 M 275.088 873.925 C 274.003 874.611, 274.234 874.897, 276.088 875.159 C 278.470 875.496, 278.507 875.669, 279.044 889 L 279.589 902.500 279.794 888.950 C 280.022 873.963, 279.195 871.324, 275.088 873.925 M 221.750 880.662 C 222.438 880.940, 223.563 880.940, 224.250 880.662 C 224.938 880.385, 224.375 880.158, 223 880.158 C 221.625 880.158, 221.063 880.385, 221.750 880.662 M 207.397 884.833 C 207.884 885.621, 214 885.208, 214 884.387 C 214 884.174, 212.398 884, 210.441 884 C 208.484 884, 207.114 884.375, 207.397 884.833 M 249 887.927 C 249 888.436, 248.213 889.017, 247.250 889.217 C 245.827 889.513, 245.920 889.696, 247.750 890.197 C 249.512 890.679, 250 890.399, 250 888.906 C 250 887.858, 249.775 887, 249.500 887 C 249.225 887, 249 887.417, 249 887.927 M 257.750 893.662 C 258.438 893.940, 259.563 893.940, 260.250 893.662 C 260.938 893.385, 260.375 893.158, 259 893.158 C 257.625 893.158, 257.063 893.385, 257.750 893.662 M 249.750 903.706 C 250.988 903.944, 253.012 903.944, 254.250 903.706 C 255.488 903.467, 254.475 903.272, 252 903.272 C 249.525 903.272, 248.512 903.467, 249.750 903.706 M 263.287 903.740 C 266.469 903.939, 271.419 903.937, 274.287 903.736 C 277.154 903.535, 274.550 903.372, 268.500 903.374 C 262.450 903.376, 260.104 903.541, 263.287 903.740 M 209.500 921.651 C 197.215 922.729, 176.965 925.269, 173.535 926.161 C 171.355 926.729, 168.502 928.033, 167.197 929.060 L 164.824 930.927 170.162 930.418 C 173.098 930.138, 177.975 929.505, 181 929.012 C 184.025 928.518, 194.825 927.611, 205 926.995 C 215.175 926.380, 224.850 925.791, 226.500 925.688 C 228.771 925.546, 229.500 925.014, 229.500 923.500 C 229.500 921.675, 228.800 921.491, 221.500 921.400 C 217.100 921.345, 211.700 921.458, 209.500 921.651 M 254.466 934.139 C 253.935 935.040, 252.600 935.981, 251.500 936.231 C 250.400 936.480, 252.425 936.672, 256 936.657 C 259.575 936.641, 261.065 936.461, 259.312 936.256 C 257.322 936.023, 255.994 935.247, 255.778 934.191 C 255.459 932.635, 255.354 932.631, 254.466 934.139 M 274.750 936.662 C 275.438 936.940, 276.563 936.940, 277.250 936.662 C 277.938 936.385, 277.375 936.158, 276 936.158 C 274.625 936.158, 274.063 936.385, 274.750 936.662 M 279.232 940 C 279.232 941.925, 279.438 942.712, 279.689 941.750 C 279.941 940.788, 279.941 939.212, 279.689 938.250 C 279.438 937.288, 279.232 938.075, 279.232 940 M 215.333 940.925 C 207.541 941.241, 200.897 941.768, 200.570 942.096 C 199.661 943.006, 221.959 943.926, 226.418 943.163 C 228.573 942.795, 230.523 941.932, 230.751 941.246 C 230.980 940.561, 230.792 940.079, 230.333 940.175 C 229.875 940.272, 223.125 940.609, 215.333 940.925 M 257.813 940.683 C 258.534 940.972, 259.397 940.936, 259.729 940.604 C 260.061 940.272, 259.471 940.036, 258.417 940.079 C 257.252 940.127, 257.015 940.364, 257.813 940.683 M 279.158 946 C 279.158 947.375, 279.385 947.938, 279.662 947.250 C 279.940 946.563, 279.940 945.438, 279.662 944.750 C 279.385 944.063, 279.158 944.625, 279.158 946 M 210.500 947 C 207.666 947.721, 207.732 947.770, 211.691 947.882 C 213.996 947.947, 216.160 947.550, 216.500 947 C 217.198 945.871, 214.937 945.871, 210.500 947 M 279.286 953.500 C 279.294 956.250, 279.488 957.256, 279.718 955.736 C 279.947 954.216, 279.941 951.966, 279.704 950.736 C 279.467 949.506, 279.279 950.750, 279.286 953.500 M 244 950.387 C 244 950.599, 245.350 950.971, 247 951.213 C 248.650 951.455, 250 951.282, 250 950.827 C 250 950.372, 248.650 950, 247 950 C 245.350 950, 244 950.174, 244 950.387 M 257.500 956 C 257.148 956.569, 258.009 957, 259.500 957 C 260.991 957, 261.852 956.569, 261.500 956 C 261.160 955.450, 260.260 955, 259.500 955 C 258.740 955, 257.840 955.450, 257.500 956 M 209.264 962.718 C 210.784 962.947, 213.034 962.941, 214.264 962.704 C 215.494 962.467, 214.250 962.279, 211.500 962.286 C 208.750 962.294, 207.744 962.488, 209.264 962.718 M 261.500 966 L 243.500 966.570 261.750 966.785 C 273.393 966.922, 280 966.638, 280 966 C 280 965.450, 279.887 965.097, 279.750 965.215 C 279.613 965.333, 271.400 965.686, 261.500 966 M 195 983.491 C 179.247 984.923, 175.741 985.602, 171.015 988.133 L 167.530 990 170.710 990 C 172.460 990, 179.428 989.547, 186.196 988.993 C 192.963 988.440, 205.694 987.877, 214.487 987.743 C 229.233 987.519, 230.501 987.354, 230.835 985.620 C 231.034 984.586, 230.590 983.355, 229.848 982.885 C 228.005 981.717, 211.313 982.007, 195 983.491 M 256.813 992.683 C 257.534 992.972, 258.397 992.936, 258.729 992.604 C 259.061 992.272, 258.471 992.036, 257.417 992.079 C 256.252 992.127, 256.015 992.364, 256.813 992.683 M 252.750 994.662 C 253.438 994.940, 254.563 994.940, 255.250 994.662 C 255.938 994.385, 255.375 994.158, 254 994.158 C 252.625 994.158, 252.063 994.385, 252.750 994.662 M 257 997.919 C 260.575 998.257, 265.525 998.249, 268 997.901 C 270.898 997.493, 268.585 997.274, 261.500 997.286 C 252.304 997.302, 251.566 997.406, 257 997.919 M 279.778 1013.750 L 279.500 1027.500 276 1028.118 L 272.500 1028.737 275.595 1028.868 C 281.018 1029.099, 281.773 1027.105, 281.705 1012.750 C 281.671 1005.737, 281.286 1000, 280.850 1000 C 280.414 1000, 279.931 1006.188, 279.778 1013.750 M 209.093 1002.068 C 197.319 1002.482, 185.619 1003.170, 183.093 1003.599 C 179.125 1004.271, 180.474 1004.544, 193 1005.601 C 208.911 1006.943, 227.936 1007.346, 230.418 1006.393 C 231.958 1005.802, 232.746 1000.843, 231.250 1001.158 C 230.838 1001.245, 220.867 1001.654, 209.093 1002.068 M 257.500 1003 C 257.148 1003.569, 258.009 1004, 259.500 1004 C 260.991 1004, 261.852 1003.569, 261.500 1003 C 261.160 1002.450, 260.260 1002, 259.500 1002 C 258.740 1002, 257.840 1002.450, 257.500 1003 M 209.750 1010.706 C 210.988 1010.944, 213.012 1010.944, 214.250 1010.706 C 215.488 1010.467, 214.475 1010.272, 212 1010.272 C 209.525 1010.272, 208.512 1010.467, 209.750 1010.706 M 244.083 1013.356 C 245.208 1014.318, 251 1014.836, 251 1013.975 C 251 1013.439, 249.350 1013, 247.333 1013 C 245.317 1013, 243.854 1013.160, 244.083 1013.356 M 259.507 1018.989 C 259.157 1019.555, 259.558 1019.723, 260.448 1019.382 C 262.180 1018.717, 262.497 1018, 261.059 1018 C 260.541 1018, 259.843 1018.445, 259.507 1018.989 M 211.500 1024 L 207.500 1024.716 212 1024.843 C 214.475 1024.912, 217.175 1024.533, 218 1024 C 219.232 1023.204, 219.143 1023.053, 217.500 1023.157 C 216.400 1023.227, 213.700 1023.606, 211.500 1024 M 250 1029.068 C 248.441 1029.609, 251.976 1029.770, 259.390 1029.495 C 265.929 1029.252, 271.517 1028.817, 271.807 1028.527 C 272.690 1027.643, 252.673 1028.139, 250 1029.068 M 275 1031 C 275 1031.550, 275.477 1032, 276.059 1032 C 276.641 1032, 276.840 1031.550, 276.500 1031 C 276.160 1030.450, 275.684 1030, 275.441 1030 C 275.198 1030, 275 1030.450, 275 1031 M 241.750 1031.706 C 242.988 1031.944, 245.012 1031.944, 246.250 1031.706 C 247.488 1031.467, 246.475 1031.272, 244 1031.272 C 241.525 1031.272, 240.512 1031.467, 241.750 1031.706 M 211.878 1041.153 C 194.256 1042.315, 179.204 1044.426, 174.573 1046.385 C 167.810 1049.245, 171.460 1050.105, 183.529 1048.496 C 189.563 1047.691, 202.375 1046.763, 212 1046.432 C 221.625 1046.102, 230.054 1045.662, 230.732 1045.454 C 231.573 1045.197, 231.697 1044.356, 231.124 1042.805 C 230.120 1040.091, 229.189 1040.011, 211.878 1041.153 M 260.500 1057 C 260.160 1057.550, 260.359 1058, 260.941 1058 C 261.523 1058, 262 1057.550, 262 1057 C 262 1056.450, 261.802 1056, 261.559 1056 C 261.316 1056, 260.840 1056.450, 260.500 1057 M 267 1058 C 267 1058.550, 267.675 1059, 268.500 1059 C 269.325 1059, 270 1058.550, 270 1058 C 270 1057.450, 269.325 1057, 268.500 1057 C 267.675 1057, 267 1057.450, 267 1058 M 275 1058 C 275 1058.550, 275.450 1059, 276 1059 C 276.550 1059, 277 1058.550, 277 1058 C 277 1057.450, 276.550 1057, 276 1057 C 275.450 1057, 275 1057.450, 275 1058 M 253 1060.620 C 258.804 1061.364, 268.004 1061.443, 268.002 1060.750 C 268.001 1060.338, 264.063 1060.067, 259.250 1060.150 C 254.438 1060.232, 251.625 1060.444, 253 1060.620 M 258.500 1065 C 258.160 1065.550, 258.835 1066, 260 1066 C 261.165 1066, 261.840 1065.550, 261.500 1065 C 261.160 1064.450, 260.485 1064, 260 1064 C 259.515 1064, 258.840 1064.450, 258.500 1065 M 280.115 1071.250 C 280.219 1077.779, 280.312 1078.102, 281.057 1074.500 C 282.213 1068.913, 282.186 1064, 281 1064 C 280.415 1064, 280.048 1067.007, 280.115 1071.250 M 211.250 1072.716 C 212.762 1072.945, 215.238 1072.945, 216.750 1072.716 C 218.262 1072.487, 217.025 1072.300, 214 1072.300 C 210.975 1072.300, 209.738 1072.487, 211.250 1072.716 M 258.624 1079.538 C 257.971 1081.240, 260.265 1082.572, 262.001 1081.500 C 262.787 1081.014, 262.766 1080.423, 261.926 1079.411 C 260.409 1077.583, 259.358 1077.624, 258.624 1079.538 M 264.500 1080 C 264.840 1080.550, 265.316 1081, 265.559 1081 C 265.802 1081, 266 1080.550, 266 1080 C 266 1079.450, 265.523 1079, 264.941 1079 C 264.359 1079, 264.160 1079.450, 264.500 1080 M 280.100 1084.250 C 280.184 1087.860, 280.320 1088.124, 281 1086 C 282.153 1082.401, 282.153 1080, 281 1080 C 280.450 1080, 280.045 1081.912, 280.100 1084.250 M 278.500 1091 C 278.160 1091.550, 278.359 1092, 278.941 1092 C 279.523 1092, 280 1091.550, 280 1091 C 280 1090.450, 279.802 1090, 279.559 1090 C 279.316 1090, 278.840 1090.450, 278.500 1091 M 249.500 1092 C 249.160 1092.550, 249.584 1093, 250.441 1093 C 251.298 1093, 252 1092.550, 252 1092 C 252 1091.450, 251.577 1091, 251.059 1091 C 250.541 1091, 249.840 1091.450, 249.500 1092 M 254.315 1091.648 C 255.013 1092.346, 271.188 1092.145, 271.903 1091.430 C 272.140 1091.194, 268.133 1091, 263 1091 C 257.867 1091, 253.958 1091.292, 254.315 1091.648 M 240 1094 C 240 1094.550, 240.702 1095, 241.559 1095 C 242.416 1095, 242.840 1094.550, 242.500 1094 C 242.160 1093.450, 241.459 1093, 240.941 1093 C 240.423 1093, 240 1093.450, 240 1094 M 254 1095 C 254 1095.550, 254.450 1096, 255 1096 C 255.550 1096, 256 1095.550, 256 1095 C 256 1094.450, 255.550 1094, 255 1094 C 254.450 1094, 254 1094.450, 254 1095 M 237 1138.559 C 237 1139.416, 237.450 1139.840, 238 1139.500 C 238.550 1139.160, 239 1138.459, 239 1137.941 C 239 1137.423, 238.550 1137, 238 1137 C 237.450 1137, 237 1137.702, 237 1138.559 M 243.750 1139.732 C 246.088 1139.943, 249.912 1139.943, 252.250 1139.732 C 254.588 1139.522, 252.675 1139.349, 248 1139.349 C 243.325 1139.349, 241.412 1139.522, 243.750 1139.732" stroke="none" fill="black" fill-rule="evenodd"/>
</svg>